<svg xmlns="http://www.w3.org/2000/svg" width="164" height="38" fill="none" viewBox="0 0 164 38">
  <g filter="url(#a)">
    <rect width="31.8" height="31.8" x="3.1" y="2.1" fill="#fff" rx="7.9"/>
    <rect width="31.8" height="31.8" x="3.1" y="2.1" fill="url(#b)" rx="7.9"/>
    <rect width="31.8" height="31.8" x="3.1" y="2.1" stroke="#D0D5DD" stroke-width=".2" rx="7.9"/>
    <path fill="url(#c)" d="M18.355 13.183c4.355-1.733 9.12-.364 11.282 1.73.469.454.867.915 1.208 1.372a8.912 8.912 0 0 0 .023-3.18c-.683-3.779-4.248-5.92-7.445-4.814-3.181 1.101-4.422 3.241-4.422 3.241s-1.242-2.14-4.423-3.24c-3.197-1.106-6.762 1.035-7.445 4.813-.505 2.79.45 5.834 2.477 8.525.427.143.875.25 1.349.313 2.839.373 3.86-.386 5.059-.894.796-.338 1.395.045 1.366.314-.045.416-1.615 1.127-1.278 1.276 1.33.59 2.966.594 4.2-.459 1.532-1.309 2.105-.414 2.105-.414s-.76 1.942-3.053 2.906c-1.912.804-3.916 1.002-5.747.796a20.746 20.746 0 0 0 5.39 2.72c5.709-1.91 9.927-6 11.413-10.278-1.007-.994-2.242-1.61-3.715-1.834-2.832-.429-3.867.31-5.076.795-.803.322-1.395-.073-1.36-.341.053-.415 1.637-1.095 1.303-1.251-1.317-.616-2.953-.653-4.207.376-1.559 1.278-2.114.372-2.114.372s.799-1.926 3.11-2.844Zm-1.084 5.322h1.1v-1.1h1.259v1.1h1.1v1.259h-1.1v1.1h-1.26v-1.1h-1.1v-1.259Z"/>
    <path fill="url(#d)" d="M17.27 18.505h1.1v-1.1h1.26v1.1h1.1v1.259h-1.092c1.622.82 4.6 2.039 8.18 2.581 1.178-1.393 2.063-2.902 2.596-4.435-1.007-.994-2.243-1.61-3.715-1.834-2.832-.429-3.867.31-5.076.795-.803.322-1.395-.073-1.36-.341.053-.415 1.637-1.095 1.303-1.251-1.317-.616-2.954-.653-4.208.376-1.558 1.278-2.114.372-2.114.372s.8-1.926 3.11-2.845c4.356-1.732 9.12-.364 11.283 1.73.469.455.867.915 1.208 1.373a8.91 8.91 0 0 0 .023-3.18c-.684-3.779-4.249-5.92-7.445-4.814-3.182 1.1-4.423 3.24-4.423 3.24s-1.24-2.14-4.423-3.24c-1.825-.632-3.77-.203-5.23.984.685 1.47 1.489 2.842 3.778 5.602 1.862 2.245 4.146 3.628 4.146 3.628Z"/>
    <path fill="url(#e)" d="M27.277 9.65c-3.006-1.51-6.108.84-7.092 2.08 1.697-.357 3.182-.54 5.06-.146 2.78.584 3.82 1.588 5.061 3.07-.219-2.747-1.954-4.464-3.029-5.004Z" opacity=".31"/>
  </g>
  <path fill="#fff" d="M46.728 28V10.12h3.12l6.696 9.096h-1.488l6.552-9.096h3.12V28H61.44V13.84l1.272.312L55.92 23.2h-.384l-6.624-9.048 1.08-.312V28h-3.264Zm27.35.288c-1.344 0-2.52-.304-3.528-.912a6.353 6.353 0 0 1-2.352-2.472c-.56-1.04-.84-2.192-.84-3.456 0-1.312.28-2.472.84-3.48a6.516 6.516 0 0 1 2.328-2.424c.992-.592 2.096-.888 3.312-.888 1.024 0 1.92.168 2.688.504.784.336 1.448.8 1.992 1.392.544.592.96 1.272 1.248 2.04.288.752.432 1.568.432 2.448 0 .224-.016.456-.048.696-.016.24-.056.448-.12.624H69.95v-2.4h8.304l-1.488 1.128c.144-.736.104-1.392-.12-1.968a2.727 2.727 0 0 0-1.056-1.368c-.48-.336-1.064-.504-1.752-.504-.656 0-1.24.168-1.752.504-.512.32-.904.8-1.176 1.44-.256.624-.352 1.384-.288 2.28-.064.8.04 1.512.312 2.136.288.608.704 1.08 1.248 1.416.56.336 1.2.504 1.92.504s1.328-.152 1.824-.456a3.262 3.262 0 0 0 1.2-1.224l2.544 1.248a4.446 4.446 0 0 1-1.2 1.656 5.972 5.972 0 0 1-1.944 1.128c-.736.272-1.552.408-2.448.408Zm14.575 0c-1.264 0-2.392-.296-3.384-.888a6.59 6.59 0 0 1-2.352-2.472c-.576-1.04-.864-2.192-.864-3.456 0-1.28.288-2.432.864-3.456a6.641 6.641 0 0 1 2.352-2.448c1.008-.608 2.128-.912 3.36-.912.992 0 1.872.2 2.64.6a4.47 4.47 0 0 1 1.848 1.632l-.48.648V9.832h3.144V28h-2.976v-2.52l.336.624c-.448.704-1.072 1.248-1.872 1.632-.8.368-1.672.552-2.616.552Zm.336-2.88c.72 0 1.352-.168 1.896-.504.544-.336.968-.8 1.272-1.392.32-.592.48-1.272.48-2.04 0-.752-.16-1.424-.48-2.016a3.418 3.418 0 0 0-1.272-1.416c-.544-.336-1.176-.504-1.896-.504-.704 0-1.336.176-1.896.528-.56.336-1 .8-1.32 1.392-.304.576-.456 1.248-.456 2.016s.152 1.448.456 2.04c.32.592.76 1.056 1.32 1.392.56.336 1.192.504 1.896.504ZM98.706 28V14.944h3.144V28h-3.144Zm0-14.52v-3.36h3.144v3.36h-3.144Zm12.695 14.808c-1.136 0-2.192-.208-3.168-.624a7.59 7.59 0 0 1-2.496-1.728 7.019 7.019 0 0 1-1.512-2.616l2.712-1.176c.432 1.024 1.056 1.832 1.872 2.424a4.671 4.671 0 0 0 2.76.864c.576 0 1.072-.088 1.488-.264.432-.192.76-.448.984-.768.24-.32.36-.704.36-1.152 0-.528-.16-.96-.48-1.296-.304-.352-.768-.624-1.392-.816l-3.432-1.104c-1.392-.432-2.44-1.08-3.144-1.944-.704-.864-1.056-1.88-1.056-3.048 0-1.024.248-1.928.744-2.712.512-.784 1.216-1.392 2.112-1.824.912-.448 1.952-.672 3.12-.672 1.072 0 2.056.192 2.952.576a6.602 6.602 0 0 1 2.304 1.56 6.193 6.193 0 0 1 1.464 2.328l-2.688 1.2c-.352-.896-.88-1.584-1.584-2.064-.704-.496-1.52-.744-2.448-.744-.544 0-1.024.096-1.44.288a2.258 2.258 0 0 0-.984.768c-.224.32-.336.704-.336 1.152 0 .496.16.936.48 1.32.32.368.808.656 1.464.864l3.288 1.032c1.424.464 2.488 1.104 3.192 1.92.72.816 1.08 1.824 1.08 3.024 0 1.024-.264 1.928-.792 2.712-.528.784-1.256 1.4-2.184 1.848-.928.448-2.008.672-3.24.672Zm10.475 5.016c-.352 0-.696-.032-1.032-.096a3.19 3.19 0 0 1-.912-.264v-2.64c.208.048.456.096.744.144.304.048.584.072.84.072.72 0 1.24-.168 1.56-.504.336-.336.632-.776.888-1.32l.864-2.016-.048 2.64-5.688-14.376h3.384l3.984 10.608h-1.2l3.96-10.608h3.408L126.94 29.32c-.336.848-.744 1.568-1.224 2.16a4.809 4.809 0 0 1-1.68 1.344c-.624.32-1.344.48-2.16.48ZM134.355 28V14.944h2.952v2.568l-.24-.456c.304-.784.8-1.376 1.488-1.776.704-.416 1.52-.624 2.448-.624.96 0 1.808.208 2.544.624.752.416 1.336 1 1.752 1.752.416.736.624 1.592.624 2.568V28h-3.144v-7.656c0-.576-.112-1.072-.336-1.488a2.353 2.353 0 0 0-.936-.96c-.384-.24-.84-.36-1.368-.36-.512 0-.968.12-1.368.36-.4.224-.712.544-.936.96-.224.416-.336.912-.336 1.488V28h-3.144Zm20.514.288c-1.296 0-2.464-.296-3.504-.888a6.71 6.71 0 0 1-2.424-2.448c-.592-1.04-.888-2.208-.888-3.504 0-1.296.296-2.456.888-3.48a6.526 6.526 0 0 1 2.424-2.424c1.04-.592 2.208-.888 3.504-.888.928 0 1.792.168 2.592.504.8.32 1.488.768 2.064 1.344a4.768 4.768 0 0 1 1.272 2.016l-2.76 1.2a3.241 3.241 0 0 0-1.224-1.584c-.56-.4-1.208-.6-1.944-.6-.688 0-1.304.168-1.848.504-.528.336-.944.8-1.248 1.392-.304.592-.456 1.272-.456 2.04s.152 1.448.456 2.04c.304.592.72 1.056 1.248 1.392.544.336 1.16.504 1.848.504.752 0 1.408-.2 1.968-.6.56-.4.96-.936 1.2-1.608l2.76 1.248a5.362 5.362 0 0 1-1.248 1.992 6.371 6.371 0 0 1-2.064 1.368c-.8.32-1.672.48-2.616.48Z"/>
  <defs>
    <linearGradient id="b" x1="19" x2="19" y1="2" y2="34" gradientUnits="userSpaceOnUse">
      <stop stop-color="#fff"/>
      <stop offset="1" stop-color="#D0D5DD"/>
    </linearGradient>
    <linearGradient id="c" x1="10.199" x2="27.835" y1="24.214" y2="6.578" gradientUnits="userSpaceOnUse">
      <stop stop-color="#0076C1"/>
      <stop offset=".074" stop-color="#0B82C6"/>
      <stop offset=".277" stop-color="#269ED3"/>
      <stop offset=".455" stop-color="#36AFDA"/>
      <stop offset=".587" stop-color="#3CB5DD"/>
    </linearGradient>
    <linearGradient id="d" x1="10.139" x2="27.827" y1="24.254" y2="6.565" gradientUnits="userSpaceOnUse">
      <stop stop-color="#00A482"/>
      <stop offset="1" stop-color="#79DD83"/>
    </linearGradient>
    <linearGradient id="e" x1="24.861" x2="28.529" y1="13.507" y2="10.113" gradientUnits="userSpaceOnUse">
      <stop stop-color="#00A482"/>
      <stop offset="1" stop-color="#79DD83"/>
    </linearGradient>
    <filter id="a" width="38" height="38" x="0" y="0" color-interpolation-filters="sRGB" filterUnits="userSpaceOnUse">
      <feFlood flood-opacity="0" result="BackgroundImageFix"/>
      <feColorMatrix in="SourceAlpha" result="hardAlpha" values="0 0 0 0 0 0 0 0 0 0 0 0 0 0 0 0 0 0 127 0"/>
      <feOffset dy="1"/>
      <feGaussianBlur stdDeviation="1"/>
      <feColorMatrix values="0 0 0 0 0.0627451 0 0 0 0 0.0941176 0 0 0 0 0.156863 0 0 0 0.06 0"/>
      <feBlend in2="BackgroundImageFix" result="effect1_dropShadow_13001_655"/>
      <feColorMatrix in="SourceAlpha" result="hardAlpha" values="0 0 0 0 0 0 0 0 0 0 0 0 0 0 0 0 0 0 127 0"/>
      <feOffset dy="1"/>
      <feGaussianBlur stdDeviation="1.5"/>
      <feColorMatrix values="0 0 0 0 0.0627451 0 0 0 0 0.0941176 0 0 0 0 0.156863 0 0 0 0.1 0"/>
      <feBlend in2="effect1_dropShadow_13001_655" result="effect2_dropShadow_13001_655"/>
      <feBlend in="SourceGraphic" in2="effect2_dropShadow_13001_655" result="shape"/>
    </filter>
  </defs>
</svg>
